<mxfile host="Electron" modified="2023-12-06T16:53:35.549Z" agent="Mozilla/5.0 (Windows NT 10.0; Win64; x64) AppleWebKit/537.36 (KHTML, like Gecko) draw.io/22.1.2 Chrome/114.0.5735.289 Electron/25.9.4 Safari/537.36" etag="rvoJ6zv1fS3v7drRUwSK" version="22.1.2" type="device">
  <diagram name="Page-1" id="Wu3HSqUtHEDuafeBJ0FG">
    <mxGraphModel dx="1098" dy="1988" grid="0" gridSize="10" guides="1" tooltips="1" connect="1" arrows="1" fold="1" page="0" pageScale="1" pageWidth="850" pageHeight="1100" math="0" shadow="0">
      <root>
        <mxCell id="0" />
        <mxCell id="1" parent="0" />
        <mxCell id="st--YeIOMh86BG9WnPkF-1" value="CSS" style="swimlane;fontStyle=0;childLayout=stackLayout;horizontal=1;startSize=30;horizontalStack=0;resizeParent=1;resizeParentMax=0;resizeLast=0;collapsible=1;marginBottom=0;whiteSpace=wrap;html=1;fillColor=#60a917;fontColor=#ffffff;strokeColor=#2D7600;" parent="1" vertex="1">
          <mxGeometry x="317" y="-516" width="167" height="180" as="geometry" />
        </mxCell>
        <mxCell id="st--YeIOMh86BG9WnPkF-2" value="theme cookiecutter test" style="text;strokeColor=none;fillColor=none;align=left;verticalAlign=middle;spacingLeft=4;spacingRight=4;overflow=hidden;points=[[0,0.5],[1,0.5]];portConstraint=eastwest;rotatable=0;whiteSpace=wrap;html=1;" parent="st--YeIOMh86BG9WnPkF-1" vertex="1">
          <mxGeometry y="30" width="167" height="30" as="geometry" />
        </mxCell>
        <mxCell id="st--YeIOMh86BG9WnPkF-3" value="extension server version" style="text;strokeColor=none;fillColor=none;align=left;verticalAlign=middle;spacingLeft=4;spacingRight=4;overflow=hidden;points=[[0,0.5],[1,0.5]];portConstraint=eastwest;rotatable=0;whiteSpace=wrap;html=1;" parent="st--YeIOMh86BG9WnPkF-1" vertex="1">
          <mxGeometry y="60" width="167" height="30" as="geometry" />
        </mxCell>
        <mxCell id="st--YeIOMh86BG9WnPkF-4" value="add release workflow" style="text;strokeColor=none;fillColor=none;align=left;verticalAlign=middle;spacingLeft=4;spacingRight=4;overflow=hidden;points=[[0,0.5],[1,0.5]];portConstraint=eastwest;rotatable=0;whiteSpace=wrap;html=1;" parent="st--YeIOMh86BG9WnPkF-1" vertex="1">
          <mxGeometry y="90" width="167" height="30" as="geometry" />
        </mxCell>
        <mxCell id="st--YeIOMh86BG9WnPkF-10" value="python fix version" style="text;strokeColor=none;fillColor=none;align=left;verticalAlign=middle;spacingLeft=4;spacingRight=4;overflow=hidden;points=[[0,0.5],[1,0.5]];portConstraint=eastwest;rotatable=0;whiteSpace=wrap;html=1;" parent="st--YeIOMh86BG9WnPkF-1" vertex="1">
          <mxGeometry y="120" width="167" height="30" as="geometry" />
        </mxCell>
        <mxCell id="st--YeIOMh86BG9WnPkF-11" value="update jupyterlab branch" style="text;strokeColor=none;fillColor=none;align=left;verticalAlign=middle;spacingLeft=4;spacingRight=4;overflow=hidden;points=[[0,0.5],[1,0.5]];portConstraint=eastwest;rotatable=0;whiteSpace=wrap;html=1;" parent="st--YeIOMh86BG9WnPkF-1" vertex="1">
          <mxGeometry y="150" width="167" height="30" as="geometry" />
        </mxCell>
        <mxCell id="st--YeIOMh86BG9WnPkF-14" value="JavaScript" style="swimlane;fontStyle=0;childLayout=stackLayout;horizontal=1;startSize=30;horizontalStack=0;resizeParent=1;resizeParentMax=0;resizeLast=0;collapsible=1;marginBottom=0;whiteSpace=wrap;html=1;fillColor=#1ba1e2;fontColor=#ffffff;strokeColor=#006EAF;" parent="1" vertex="1">
          <mxGeometry x="263" y="-284.5" width="249" height="180" as="geometry" />
        </mxCell>
        <mxCell id="st--YeIOMh86BG9WnPkF-15" value="&lt;table style=&quot;border-color: var(--border-color); width: 223pt;&quot; border=&quot;0&quot; cellpadding=&quot;0&quot; cellspacing=&quot;0&quot; width=&quot;297&quot;&gt;&lt;tbody style=&quot;border-color: var(--border-color);&quot;&gt;&lt;tr style=&quot;border-color: var(--border-color); height: 15pt;&quot; height=&quot;20&quot;&gt;&lt;td style=&quot;border-color: var(--border-color); height: 15pt;&quot; height=&quot;20&quot;&gt;bump codemodsfrontend factoryboy&lt;/td&gt;&lt;/tr&gt;&lt;tr style=&quot;border-color: var(--border-color); height: 15pt;&quot; height=&quot;20&quot;&gt;&lt;/tr&gt;&lt;/tbody&gt;&lt;/table&gt;" style="text;strokeColor=none;fillColor=none;align=left;verticalAlign=middle;spacingLeft=4;spacingRight=4;overflow=hidden;points=[[0,0.5],[1,0.5]];portConstraint=eastwest;rotatable=0;whiteSpace=wrap;html=1;" parent="st--YeIOMh86BG9WnPkF-14" vertex="1">
          <mxGeometry y="30" width="249" height="30" as="geometry" />
        </mxCell>
        <mxCell id="st--YeIOMh86BG9WnPkF-16" value="bump cookiecutterprojectslugfrontend add" style="text;strokeColor=none;fillColor=none;align=left;verticalAlign=middle;spacingLeft=4;spacingRight=4;overflow=hidden;points=[[0,0.5],[1,0.5]];portConstraint=eastwest;rotatable=0;whiteSpace=wrap;html=1;" parent="st--YeIOMh86BG9WnPkF-14" vertex="1">
          <mxGeometry y="60" width="249" height="30" as="geometry" />
        </mxCell>
        <mxCell id="st--YeIOMh86BG9WnPkF-17" value="update dependency sphinx" style="text;strokeColor=none;fillColor=none;align=left;verticalAlign=middle;spacingLeft=4;spacingRight=4;overflow=hidden;points=[[0,0.5],[1,0.5]];portConstraint=eastwest;rotatable=0;whiteSpace=wrap;html=1;" parent="st--YeIOMh86BG9WnPkF-14" vertex="1">
          <mxGeometry y="90" width="249" height="30" as="geometry" />
        </mxCell>
        <mxCell id="st--YeIOMh86BG9WnPkF-18" value="update faker dependency" style="text;strokeColor=none;fillColor=none;align=left;verticalAlign=middle;spacingLeft=4;spacingRight=4;overflow=hidden;points=[[0,0.5],[1,0.5]];portConstraint=eastwest;rotatable=0;whiteSpace=wrap;html=1;" parent="st--YeIOMh86BG9WnPkF-14" vertex="1">
          <mxGeometry y="120" width="249" height="30" as="geometry" />
        </mxCell>
        <mxCell id="st--YeIOMh86BG9WnPkF-19" value="update dependency testinglibraryuserevent" style="text;strokeColor=none;fillColor=none;align=left;verticalAlign=middle;spacingLeft=4;spacingRight=4;overflow=hidden;points=[[0,0.5],[1,0.5]];portConstraint=eastwest;rotatable=0;whiteSpace=wrap;html=1;" parent="st--YeIOMh86BG9WnPkF-14" vertex="1">
          <mxGeometry y="150" width="249" height="30" as="geometry" />
        </mxCell>
        <mxCell id="st--YeIOMh86BG9WnPkF-20" value="Dockerfile" style="swimlane;fontStyle=0;childLayout=stackLayout;horizontal=1;startSize=30;horizontalStack=0;resizeParent=1;resizeParentMax=0;resizeLast=0;collapsible=1;marginBottom=0;whiteSpace=wrap;html=1;fillColor=#6a00ff;fontColor=#ffffff;strokeColor=#3700CC;" parent="1" vertex="1">
          <mxGeometry x="567" y="-512" width="140" height="180" as="geometry" />
        </mxCell>
        <mxCell id="st--YeIOMh86BG9WnPkF-21" value="feat add docs" style="text;strokeColor=none;fillColor=none;align=left;verticalAlign=middle;spacingLeft=4;spacingRight=4;overflow=hidden;points=[[0,0.5],[1,0.5]];portConstraint=eastwest;rotatable=0;whiteSpace=wrap;html=1;" parent="st--YeIOMh86BG9WnPkF-20" vertex="1">
          <mxGeometry y="30" width="140" height="30" as="geometry" />
        </mxCell>
        <mxCell id="st--YeIOMh86BG9WnPkF-22" value="feat add precommit" style="text;strokeColor=none;fillColor=none;align=left;verticalAlign=middle;spacingLeft=4;spacingRight=4;overflow=hidden;points=[[0,0.5],[1,0.5]];portConstraint=eastwest;rotatable=0;whiteSpace=wrap;html=1;" parent="st--YeIOMh86BG9WnPkF-20" vertex="1">
          <mxGeometry y="60" width="140" height="30" as="geometry" />
        </mxCell>
        <mxCell id="st--YeIOMh86BG9WnPkF-23" value="feat improve mount" style="text;strokeColor=none;fillColor=none;align=left;verticalAlign=middle;spacingLeft=4;spacingRight=4;overflow=hidden;points=[[0,0.5],[1,0.5]];portConstraint=eastwest;rotatable=0;whiteSpace=wrap;html=1;" parent="st--YeIOMh86BG9WnPkF-20" vertex="1">
          <mxGeometry y="90" width="140" height="30" as="geometry" />
        </mxCell>
        <mxCell id="st--YeIOMh86BG9WnPkF-25" value="fix feat improve" style="text;strokeColor=none;fillColor=none;align=left;verticalAlign=middle;spacingLeft=4;spacingRight=4;overflow=hidden;points=[[0,0.5],[1,0.5]];portConstraint=eastwest;rotatable=0;whiteSpace=wrap;html=1;" parent="st--YeIOMh86BG9WnPkF-20" vertex="1">
          <mxGeometry y="120" width="140" height="30" as="geometry" />
        </mxCell>
        <mxCell id="st--YeIOMh86BG9WnPkF-26" value="use python version" style="text;strokeColor=none;fillColor=none;align=left;verticalAlign=middle;spacingLeft=4;spacingRight=4;overflow=hidden;points=[[0,0.5],[1,0.5]];portConstraint=eastwest;rotatable=0;whiteSpace=wrap;html=1;" parent="st--YeIOMh86BG9WnPkF-20" vertex="1">
          <mxGeometry y="150" width="140" height="30" as="geometry" />
        </mxCell>
        <mxCell id="st--YeIOMh86BG9WnPkF-27" value="Makefile" style="swimlane;fontStyle=0;childLayout=stackLayout;horizontal=1;startSize=30;horizontalStack=0;resizeParent=1;resizeParentMax=0;resizeLast=0;collapsible=1;marginBottom=0;whiteSpace=wrap;html=1;fillColor=#f0a30a;fontColor=#000000;strokeColor=#BD7000;" parent="1" vertex="1">
          <mxGeometry x="578" y="-287" width="205" height="180" as="geometry" />
        </mxCell>
        <mxCell id="st--YeIOMh86BG9WnPkF-28" value="requirementstxt remove version" style="text;strokeColor=none;fillColor=none;align=left;verticalAlign=middle;spacingLeft=4;spacingRight=4;overflow=hidden;points=[[0,0.5],[1,0.5]];portConstraint=eastwest;rotatable=0;whiteSpace=wrap;html=1;" parent="st--YeIOMh86BG9WnPkF-27" vertex="1">
          <mxGeometry y="30" width="205" height="30" as="geometry" />
        </mxCell>
        <mxCell id="st--YeIOMh86BG9WnPkF-29" value="add target run" style="text;strokeColor=none;fillColor=none;align=left;verticalAlign=middle;spacingLeft=4;spacingRight=4;overflow=hidden;points=[[0,0.5],[1,0.5]];portConstraint=eastwest;rotatable=0;whiteSpace=wrap;html=1;" parent="st--YeIOMh86BG9WnPkF-27" vertex="1">
          <mxGeometry y="60" width="205" height="30" as="geometry" />
        </mxCell>
        <mxCell id="st--YeIOMh86BG9WnPkF-30" value="github fix actions" style="text;strokeColor=none;fillColor=none;align=left;verticalAlign=middle;spacingLeft=4;spacingRight=4;overflow=hidden;points=[[0,0.5],[1,0.5]];portConstraint=eastwest;rotatable=0;whiteSpace=wrap;html=1;" parent="st--YeIOMh86BG9WnPkF-27" vertex="1">
          <mxGeometry y="90" width="205" height="30" as="geometry" />
        </mxCell>
        <mxCell id="st--YeIOMh86BG9WnPkF-32" value="add description update" style="text;strokeColor=none;fillColor=none;align=left;verticalAlign=middle;spacingLeft=4;spacingRight=4;overflow=hidden;points=[[0,0.5],[1,0.5]];portConstraint=eastwest;rotatable=0;whiteSpace=wrap;html=1;" parent="st--YeIOMh86BG9WnPkF-27" vertex="1">
          <mxGeometry y="120" width="205" height="30" as="geometry" />
        </mxCell>
        <mxCell id="st--YeIOMh86BG9WnPkF-33" value="template package python" style="text;strokeColor=none;fillColor=none;align=left;verticalAlign=middle;spacingLeft=4;spacingRight=4;overflow=hidden;points=[[0,0.5],[1,0.5]];portConstraint=eastwest;rotatable=0;whiteSpace=wrap;html=1;" parent="st--YeIOMh86BG9WnPkF-27" vertex="1">
          <mxGeometry y="150" width="205" height="30" as="geometry" />
        </mxCell>
        <mxCell id="st--YeIOMh86BG9WnPkF-34" value="Go" style="swimlane;fontStyle=0;childLayout=stackLayout;horizontal=1;startSize=30;horizontalStack=0;resizeParent=1;resizeParentMax=0;resizeLast=0;collapsible=1;marginBottom=0;whiteSpace=wrap;html=1;fillColor=#76608a;fontColor=#ffffff;strokeColor=#432D57;" parent="1" vertex="1">
          <mxGeometry x="796" y="-516" width="256" height="180" as="geometry" />
        </mxCell>
        <mxCell id="st--YeIOMh86BG9WnPkF-35" value="documentation templates creating" style="text;strokeColor=none;fillColor=none;align=left;verticalAlign=middle;spacingLeft=4;spacingRight=4;overflow=hidden;points=[[0,0.5],[1,0.5]];portConstraint=eastwest;rotatable=0;whiteSpace=wrap;html=1;" parent="st--YeIOMh86BG9WnPkF-34" vertex="1">
          <mxGeometry y="30" width="256" height="30" as="geometry" />
        </mxCell>
        <mxCell id="st--YeIOMh86BG9WnPkF-36" value="template command circleci" style="text;strokeColor=none;fillColor=none;align=left;verticalAlign=middle;spacingLeft=4;spacingRight=4;overflow=hidden;points=[[0,0.5],[1,0.5]];portConstraint=eastwest;rotatable=0;whiteSpace=wrap;html=1;" parent="st--YeIOMh86BG9WnPkF-34" vertex="1">
          <mxGeometry y="60" width="256" height="30" as="geometry" />
        </mxCell>
        <mxCell id="st--YeIOMh86BG9WnPkF-37" value="import example project" style="text;strokeColor=none;fillColor=none;align=left;verticalAlign=middle;spacingLeft=4;spacingRight=4;overflow=hidden;points=[[0,0.5],[1,0.5]];portConstraint=eastwest;rotatable=0;whiteSpace=wrap;html=1;" parent="st--YeIOMh86BG9WnPkF-34" vertex="1">
          <mxGeometry y="90" width="256" height="30" as="geometry" />
        </mxCell>
        <mxCell id="st--YeIOMh86BG9WnPkF-39" value="bump add monorepogincookiecutterreponame" style="text;strokeColor=none;fillColor=none;align=left;verticalAlign=middle;spacingLeft=4;spacingRight=4;overflow=hidden;points=[[0,0.5],[1,0.5]];portConstraint=eastwest;rotatable=0;whiteSpace=wrap;html=1;" parent="st--YeIOMh86BG9WnPkF-34" vertex="1">
          <mxGeometry y="120" width="256" height="30" as="geometry" />
        </mxCell>
        <mxCell id="st--YeIOMh86BG9WnPkF-40" value="readme add template" style="text;strokeColor=none;fillColor=none;align=left;verticalAlign=middle;spacingLeft=4;spacingRight=4;overflow=hidden;points=[[0,0.5],[1,0.5]];portConstraint=eastwest;rotatable=0;whiteSpace=wrap;html=1;" parent="st--YeIOMh86BG9WnPkF-34" vertex="1">
          <mxGeometry y="150" width="256" height="30" as="geometry" />
        </mxCell>
        <mxCell id="st--YeIOMh86BG9WnPkF-41" value="Rust" style="swimlane;fontStyle=0;childLayout=stackLayout;horizontal=1;startSize=30;horizontalStack=0;resizeParent=1;resizeParentMax=0;resizeLast=0;collapsible=1;marginBottom=0;whiteSpace=wrap;html=1;fillColor=#a0522d;fontColor=#ffffff;strokeColor=#6D1F00;" parent="1" vertex="1">
          <mxGeometry x="879" y="-257" width="175" height="180" as="geometry" />
        </mxCell>
        <mxCell id="st--YeIOMh86BG9WnPkF-42" value="request specifying custom" style="text;strokeColor=none;fillColor=none;align=left;verticalAlign=middle;spacingLeft=4;spacingRight=4;overflow=hidden;points=[[0,0.5],[1,0.5]];portConstraint=eastwest;rotatable=0;whiteSpace=wrap;html=1;" parent="st--YeIOMh86BG9WnPkF-41" vertex="1">
          <mxGeometry y="30" width="175" height="30" as="geometry" />
        </mxCell>
        <mxCell id="st--YeIOMh86BG9WnPkF-43" value="contents dependencies update" style="text;strokeColor=none;fillColor=none;align=left;verticalAlign=middle;spacingLeft=4;spacingRight=4;overflow=hidden;points=[[0,0.5],[1,0.5]];portConstraint=eastwest;rotatable=0;whiteSpace=wrap;html=1;" parent="st--YeIOMh86BG9WnPkF-41" vertex="1">
          <mxGeometry y="60" width="175" height="30" as="geometry" />
        </mxCell>
        <mxCell id="st--YeIOMh86BG9WnPkF-44" value="project compile time" style="text;strokeColor=none;fillColor=none;align=left;verticalAlign=middle;spacingLeft=4;spacingRight=4;overflow=hidden;points=[[0,0.5],[1,0.5]];portConstraint=eastwest;rotatable=0;whiteSpace=wrap;html=1;" parent="st--YeIOMh86BG9WnPkF-41" vertex="1">
          <mxGeometry y="90" width="175" height="30" as="geometry" />
        </mxCell>
        <mxCell id="st--YeIOMh86BG9WnPkF-46" value="bump git time" style="text;strokeColor=none;fillColor=none;align=left;verticalAlign=middle;spacingLeft=4;spacingRight=4;overflow=hidden;points=[[0,0.5],[1,0.5]];portConstraint=eastwest;rotatable=0;whiteSpace=wrap;html=1;" parent="st--YeIOMh86BG9WnPkF-41" vertex="1">
          <mxGeometry y="120" width="175" height="30" as="geometry" />
        </mxCell>
        <mxCell id="st--YeIOMh86BG9WnPkF-47" value="project compile time" style="text;strokeColor=none;fillColor=none;align=left;verticalAlign=middle;spacingLeft=4;spacingRight=4;overflow=hidden;points=[[0,0.5],[1,0.5]];portConstraint=eastwest;rotatable=0;whiteSpace=wrap;html=1;" parent="st--YeIOMh86BG9WnPkF-41" vertex="1">
          <mxGeometry y="150" width="175" height="30" as="geometry" />
        </mxCell>
        <mxCell id="st--YeIOMh86BG9WnPkF-48" value="Java" style="swimlane;fontStyle=0;childLayout=stackLayout;horizontal=1;startSize=30;horizontalStack=0;resizeParent=1;resizeParentMax=0;resizeLast=0;collapsible=1;marginBottom=0;whiteSpace=wrap;html=1;fillColor=#fad9d5;strokeColor=#ae4132;" parent="1" vertex="1">
          <mxGeometry x="1148" y="-516" width="160" height="180" as="geometry" />
        </mxCell>
        <mxCell id="st--YeIOMh86BG9WnPkF-49" value="generate inject binding" style="text;strokeColor=none;fillColor=none;align=left;verticalAlign=middle;spacingLeft=4;spacingRight=4;overflow=hidden;points=[[0,0.5],[1,0.5]];portConstraint=eastwest;rotatable=0;whiteSpace=wrap;html=1;" parent="st--YeIOMh86BG9WnPkF-48" vertex="1">
          <mxGeometry y="30" width="160" height="30" as="geometry" />
        </mxCell>
        <mxCell id="st--YeIOMh86BG9WnPkF-50" value="variable custom add" style="text;strokeColor=none;fillColor=none;align=left;verticalAlign=middle;spacingLeft=4;spacingRight=4;overflow=hidden;points=[[0,0.5],[1,0.5]];portConstraint=eastwest;rotatable=0;whiteSpace=wrap;html=1;" parent="st--YeIOMh86BG9WnPkF-48" vertex="1">
          <mxGeometry y="60" width="160" height="30" as="geometry" />
        </mxCell>
        <mxCell id="st--YeIOMh86BG9WnPkF-51" value="working empty directories" style="text;strokeColor=none;fillColor=none;align=left;verticalAlign=middle;spacingLeft=4;spacingRight=4;overflow=hidden;points=[[0,0.5],[1,0.5]];portConstraint=eastwest;rotatable=0;whiteSpace=wrap;html=1;" parent="st--YeIOMh86BG9WnPkF-48" vertex="1">
          <mxGeometry y="90" width="160" height="30" as="geometry" />
        </mxCell>
        <mxCell id="st--YeIOMh86BG9WnPkF-53" value="backslash new lines" style="text;strokeColor=none;fillColor=none;align=left;verticalAlign=middle;spacingLeft=4;spacingRight=4;overflow=hidden;points=[[0,0.5],[1,0.5]];portConstraint=eastwest;rotatable=0;whiteSpace=wrap;html=1;" parent="st--YeIOMh86BG9WnPkF-48" vertex="1">
          <mxGeometry y="120" width="160" height="30" as="geometry" />
        </mxCell>
        <mxCell id="st--YeIOMh86BG9WnPkF-54" value="gradle annotations add" style="text;strokeColor=none;fillColor=none;align=left;verticalAlign=middle;spacingLeft=4;spacingRight=4;overflow=hidden;points=[[0,0.5],[1,0.5]];portConstraint=eastwest;rotatable=0;whiteSpace=wrap;html=1;" parent="st--YeIOMh86BG9WnPkF-48" vertex="1">
          <mxGeometry y="150" width="160" height="30" as="geometry" />
        </mxCell>
        <mxCell id="st--YeIOMh86BG9WnPkF-55" value="Shell" style="swimlane;fontStyle=0;childLayout=stackLayout;horizontal=1;startSize=30;horizontalStack=0;resizeParent=1;resizeParentMax=0;resizeLast=0;collapsible=1;marginBottom=0;whiteSpace=wrap;html=1;fillColor=#bac8d3;strokeColor=#23445d;" parent="1" vertex="1">
          <mxGeometry x="1119" y="-268" width="157" height="180" as="geometry" />
        </mxCell>
        <mxCell id="st--YeIOMh86BG9WnPkF-56" value="travisci github workflows" style="text;strokeColor=none;fillColor=none;align=left;verticalAlign=middle;spacingLeft=4;spacingRight=4;overflow=hidden;points=[[0,0.5],[1,0.5]];portConstraint=eastwest;rotatable=0;whiteSpace=wrap;html=1;" parent="st--YeIOMh86BG9WnPkF-55" vertex="1">
          <mxGeometry y="30" width="157" height="30" as="geometry" />
        </mxCell>
        <mxCell id="st--YeIOMh86BG9WnPkF-57" value="run tests setup" style="text;strokeColor=none;fillColor=none;align=left;verticalAlign=middle;spacingLeft=4;spacingRight=4;overflow=hidden;points=[[0,0.5],[1,0.5]];portConstraint=eastwest;rotatable=0;whiteSpace=wrap;html=1;" parent="st--YeIOMh86BG9WnPkF-55" vertex="1">
          <mxGeometry y="60" width="157" height="30" as="geometry" />
        </mxCell>
        <mxCell id="st--YeIOMh86BG9WnPkF-58" value="mac support add" style="text;strokeColor=none;fillColor=none;align=left;verticalAlign=middle;spacingLeft=4;spacingRight=4;overflow=hidden;points=[[0,0.5],[1,0.5]];portConstraint=eastwest;rotatable=0;whiteSpace=wrap;html=1;" parent="st--YeIOMh86BG9WnPkF-55" vertex="1">
          <mxGeometry y="90" width="157" height="30" as="geometry" />
        </mxCell>
        <mxCell id="st--YeIOMh86BG9WnPkF-60" value="variables errors produce" style="text;strokeColor=none;fillColor=none;align=left;verticalAlign=middle;spacingLeft=4;spacingRight=4;overflow=hidden;points=[[0,0.5],[1,0.5]];portConstraint=eastwest;rotatable=0;whiteSpace=wrap;html=1;" parent="st--YeIOMh86BG9WnPkF-55" vertex="1">
          <mxGeometry y="120" width="157" height="30" as="geometry" />
        </mxCell>
        <mxCell id="st--YeIOMh86BG9WnPkF-61" value="wrapping templates quotes" style="text;strokeColor=none;fillColor=none;align=left;verticalAlign=middle;spacingLeft=4;spacingRight=4;overflow=hidden;points=[[0,0.5],[1,0.5]];portConstraint=eastwest;rotatable=0;whiteSpace=wrap;html=1;" parent="st--YeIOMh86BG9WnPkF-55" vertex="1">
          <mxGeometry y="150" width="157" height="30" as="geometry" />
        </mxCell>
        <mxCell id="st--YeIOMh86BG9WnPkF-63" value="Python" style="swimlane;fontStyle=0;childLayout=stackLayout;horizontal=1;startSize=30;horizontalStack=0;resizeParent=1;resizeParentMax=0;resizeLast=0;collapsible=1;marginBottom=0;whiteSpace=wrap;html=1;fillColor=#d0cee2;strokeColor=#56517e;" parent="1" vertex="1">
          <mxGeometry x="255" y="-65" width="257" height="180" as="geometry" />
        </mxCell>
        <mxCell id="st--YeIOMh86BG9WnPkF-64" value="bump cookiecutterprojectname arrowup" style="text;strokeColor=none;fillColor=none;align=left;verticalAlign=middle;spacingLeft=4;spacingRight=4;overflow=hidden;points=[[0,0.5],[1,0.5]];portConstraint=eastwest;rotatable=0;whiteSpace=wrap;html=1;" parent="st--YeIOMh86BG9WnPkF-63" vertex="1">
          <mxGeometry y="30" width="257" height="30" as="geometry" />
        </mxCell>
        <mxCell id="st--YeIOMh86BG9WnPkF-65" value="update dependabot cookiecutter" style="text;strokeColor=none;fillColor=none;align=left;verticalAlign=middle;spacingLeft=4;spacingRight=4;overflow=hidden;points=[[0,0.5],[1,0.5]];portConstraint=eastwest;rotatable=0;whiteSpace=wrap;html=1;" parent="st--YeIOMh86BG9WnPkF-63" vertex="1">
          <mxGeometry y="60" width="257" height="30" as="geometry" />
        </mxCell>
        <mxCell id="st--YeIOMh86BG9WnPkF-66" value="bump cookiecutterprojectnamefrontend sphinx" style="text;strokeColor=none;fillColor=none;align=left;verticalAlign=middle;spacingLeft=4;spacingRight=4;overflow=hidden;points=[[0,0.5],[1,0.5]];portConstraint=eastwest;rotatable=0;whiteSpace=wrap;html=1;" parent="st--YeIOMh86BG9WnPkF-63" vertex="1">
          <mxGeometry y="90" width="257" height="30" as="geometry" />
        </mxCell>
        <mxCell id="st--YeIOMh86BG9WnPkF-70" value="update pytest dependency" style="text;strokeColor=none;fillColor=none;align=left;verticalAlign=middle;spacingLeft=4;spacingRight=4;overflow=hidden;points=[[0,0.5],[1,0.5]];portConstraint=eastwest;rotatable=0;whiteSpace=wrap;html=1;" parent="st--YeIOMh86BG9WnPkF-63" vertex="1">
          <mxGeometry y="120" width="257" height="30" as="geometry" />
        </mxCell>
        <mxCell id="st--YeIOMh86BG9WnPkF-71" value="add fix docs" style="text;strokeColor=none;fillColor=none;align=left;verticalAlign=middle;spacingLeft=4;spacingRight=4;overflow=hidden;points=[[0,0.5],[1,0.5]];portConstraint=eastwest;rotatable=0;whiteSpace=wrap;html=1;" parent="st--YeIOMh86BG9WnPkF-63" vertex="1">
          <mxGeometry y="150" width="257" height="30" as="geometry" />
        </mxCell>
        <mxCell id="st--YeIOMh86BG9WnPkF-69" value="&lt;br&gt;&lt;br&gt;&lt;br&gt;&lt;br&gt;&lt;br&gt;&lt;br&gt;&lt;br&gt;&lt;br&gt;&lt;br&gt;&lt;br&gt;&lt;br&gt;&lt;br&gt;&lt;br&gt;&lt;br&gt;&lt;br&gt;&lt;br&gt;&lt;br&gt;&lt;br&gt;&lt;br&gt;&lt;br&gt;&lt;br&gt;&lt;br&gt;&lt;table border=&quot;0&quot; cellpadding=&quot;0&quot; cellspacing=&quot;0&quot; width=&quot;405&quot; style=&quot;border-collapse:&lt;br/&gt; collapse;width:304pt&quot;&gt; &lt;colgroup&gt;&lt;col width=&quot;405&quot; style=&quot;mso-width-source:userset;mso-width-alt:14811;width:304pt&quot;&gt;&lt;/colgroup&gt; &lt;tbody&gt;&lt;tr height=&quot;20&quot; style=&quot;height:15.0pt&quot;&gt;  &lt;td height=&quot;20&quot; width=&quot;405&quot; style=&quot;height:15.0pt;width:304pt&quot;&gt;Python&lt;/td&gt; &lt;/tr&gt; &lt;tr height=&quot;20&quot; style=&quot;height:15.0pt&quot;&gt;  &lt;td height=&quot;20&quot; style=&quot;height:15.0pt&quot;&gt;&lt;br&gt;&lt;/td&gt; &lt;/tr&gt; &lt;tr height=&quot;20&quot; style=&quot;height:15.0pt&quot;&gt;  &lt;td height=&quot;20&quot; style=&quot;height:15.0pt&quot;&gt;&lt;br&gt;&lt;/td&gt; &lt;/tr&gt; &lt;tr height=&quot;20&quot; style=&quot;height:15.0pt&quot;&gt;  &lt;td height=&quot;20&quot; style=&quot;height:15.0pt&quot;&gt;&lt;br&gt;&lt;/td&gt; &lt;/tr&gt; &lt;tr height=&quot;20&quot; style=&quot;height:15.0pt&quot;&gt;  &lt;td height=&quot;20&quot; style=&quot;height:15.0pt&quot;&gt;&lt;br&gt;&lt;/td&gt; &lt;/tr&gt; &lt;tr height=&quot;20&quot; style=&quot;height:15.0pt&quot;&gt;  &lt;td height=&quot;20&quot; style=&quot;height:15.0pt&quot;&gt;&lt;br&gt;&lt;/td&gt; &lt;/tr&gt;&lt;/tbody&gt;&lt;/table&gt;" style="text;whiteSpace=wrap;html=1;" parent="1" vertex="1">
          <mxGeometry x="1449" y="-5" width="433" height="467" as="geometry" />
        </mxCell>
      </root>
    </mxGraphModel>
  </diagram>
</mxfile>
